<svg width="170" height="33" viewBox="0 0 170 33" fill="none" xmlns="http://www.w3.org/2000/svg">
<path fill-rule="evenodd" clip-rule="evenodd" d="M30.2711 5.16177C27.8685 2.0269 24.0492 0 19.7482 0H13.1655C5.89438 0 0 5.7928 0 12.9386V19.4079C0 26.5537 5.89438 32.3465 13.1655 32.3465H19.7482C27.0193 32.3465 32.9137 26.5537 32.9137 19.4079V12.9386C32.9137 11.2209 32.5731 9.58137 31.9547 8.0817L16.7977 22.9775C16.155 23.6091 15.113 23.6091 14.4703 22.9775L7.06475 15.6995C6.42207 15.0679 6.42207 14.0439 7.06475 13.4123C7.70742 12.7807 8.74941 12.7807 9.39209 13.4123L15.634 19.5466L30.2711 5.16177Z" fill="#0B6D4B" fill-opacity="0.64"/>
<path d="M48.9136 27.7633V4.23859H64.7566V8.33933H53.9726V13.9448H63.705V18.0456H53.9726V27.7633H48.9136Z" fill="#0B6D4B" fill-opacity="0.64"/>
<path d="M72.3745 28.0504C71.0114 28.0504 69.7769 27.7059 68.6708 27.0167C67.5726 26.3198 66.7002 25.2975 66.0537 23.9497C65.415 22.5943 65.0956 20.9325 65.0956 18.9645C65.0956 16.9428 65.4267 15.262 66.0887 13.9218C66.7508 12.5741 67.631 11.5671 68.7292 10.9009C69.8353 10.227 71.0465 9.89003 72.3628 9.89003C73.3676 9.89003 74.205 10.0585 74.8748 10.3954C75.5525 10.7247 76.0977 11.1382 76.5105 11.636C76.9311 12.1261 77.2505 12.6085 77.4686 13.0833H77.6205V10.1198H82.586V27.7633H77.6789V24.9376H77.4686C77.2349 25.4277 76.9039 25.9139 76.4755 26.3964C76.0549 26.8712 75.5057 27.2655 74.8281 27.5795C74.1582 27.8935 73.3404 28.0504 72.3745 28.0504ZM73.9518 24.1565C74.7541 24.1565 75.4317 23.9421 75.9848 23.5132C76.5456 23.0767 76.974 22.4679 77.27 21.6868C77.5737 20.9057 77.7256 19.9906 77.7256 18.9415C77.7256 17.8924 77.5776 16.9811 77.2817 16.2077C76.9857 15.4343 76.5573 14.837 75.9965 14.4158C75.4356 13.9946 74.7541 13.784 73.9518 13.784C73.134 13.784 72.4446 14.0023 71.8838 14.4387C71.323 14.8752 70.8985 15.4802 70.6103 16.2536C70.3221 17.0271 70.178 17.923 70.178 18.9415C70.178 19.9677 70.3221 20.8751 70.6103 21.6639C70.9063 22.445 71.3308 23.0576 71.8838 23.5017C72.4446 23.9382 73.134 24.1565 73.9518 24.1565Z" fill="#0B6D4B" fill-opacity="0.64"/>
<path d="M100.623 15.1509L96.0662 15.4266C95.9883 15.0437 95.8209 14.6991 95.5638 14.3928C95.3068 14.0788 94.968 13.83 94.5474 13.6462C94.1345 13.4547 93.6399 13.359 93.0635 13.359C92.2924 13.359 91.642 13.5198 91.1124 13.8414C90.5827 14.1554 90.3179 14.5766 90.3179 15.105C90.3179 15.5262 90.4893 15.8822 90.832 16.1732C91.1747 16.4642 91.7628 16.6978 92.5962 16.8739L95.8443 17.5172C97.589 17.8694 98.8898 18.4361 99.7466 19.2172C100.603 19.9983 101.032 21.0244 101.032 22.2956C101.032 23.452 100.685 24.4666 99.9919 25.3396C99.3065 26.2126 98.364 26.8941 97.1645 27.3842C95.9728 27.8667 94.598 28.1079 93.0402 28.1079C90.6645 28.1079 88.7718 27.6216 87.3619 26.6491C85.9599 25.6689 85.1382 24.3364 84.8967 22.6517L89.7921 22.399C89.9401 23.1112 90.2984 23.6549 90.867 24.0301C91.4356 24.3977 92.1639 24.5815 93.0519 24.5815C93.9242 24.5815 94.6253 24.4168 95.1549 24.0875C95.6924 23.7506 95.965 23.3179 95.9728 22.7896C95.965 22.3454 95.7741 21.9817 95.4003 21.6983C95.0264 21.4073 94.45 21.1853 93.6711 21.0321L90.5633 20.4233C88.8107 20.0787 87.506 19.4814 86.6492 18.6314C85.8002 17.7814 85.3757 16.6978 85.3757 15.3807C85.3757 14.2473 85.6873 13.2709 86.3104 12.4516C86.9413 11.6322 87.8254 11.0004 88.9626 10.5563C90.1076 10.1121 91.4473 9.89003 92.9818 9.89003C95.2484 9.89003 97.0321 10.361 98.3329 11.3029C99.6414 12.2448 100.405 13.5275 100.623 15.1509Z" fill="#0B6D4B" fill-opacity="0.64"/>
<path d="M112.724 10.1198V13.7955H101.917V10.1198H112.724ZM104.371 5.89267H109.348V22.3416C109.348 22.7934 109.418 23.1456 109.558 23.3983C109.698 23.6434 109.893 23.8157 110.142 23.9153C110.399 24.0148 110.695 24.0646 111.03 24.0646C111.264 24.0646 111.498 24.0454 111.731 24.0071C111.965 23.9612 112.144 23.9267 112.269 23.9038L113.052 27.545C112.802 27.6216 112.452 27.7097 112 27.8092C111.548 27.9164 110.999 27.9815 110.353 28.0045C109.153 28.0505 108.102 27.8935 107.198 27.5336C106.302 27.1736 105.605 26.6146 105.107 25.8565C104.608 25.0984 104.363 24.1412 104.371 22.9848V5.89267Z" fill="#0B6D4B" fill-opacity="0.64"/>
<path d="M121.4 28.0504C120.037 28.0504 118.802 27.7059 117.696 27.0167C116.598 26.3198 115.725 25.2975 115.079 23.9497C114.44 22.5943 114.121 20.9325 114.121 18.9645C114.121 16.9428 114.452 15.262 115.114 13.9218C115.776 12.5741 116.656 11.5671 117.754 10.9009C118.86 10.227 120.072 9.89003 121.388 9.89003C122.393 9.89003 123.23 10.0585 123.9 10.3954C124.578 10.7247 125.123 11.1382 125.536 11.636C125.956 12.1261 126.276 12.6085 126.494 13.0833H126.646V10.1198H131.611V27.7633H126.704V24.9376H126.494C126.26 25.4277 125.929 25.9139 125.501 26.3964C125.08 26.8712 124.531 27.2655 123.853 27.5795C123.183 27.8935 122.366 28.0504 121.4 28.0504ZM122.977 24.1565C123.779 24.1565 124.457 23.9421 125.01 23.5132C125.571 23.0767 125.999 22.4679 126.295 21.6868C126.599 20.9057 126.751 19.9906 126.751 18.9415C126.751 17.8924 126.603 16.9811 126.307 16.2077C126.011 15.4343 125.582 14.837 125.022 14.4158C124.461 13.9946 123.779 13.784 122.977 13.784C122.159 13.784 121.47 14.0023 120.909 14.4387C120.348 14.8752 119.924 15.4802 119.636 16.2536C119.347 17.0271 119.203 17.923 119.203 18.9415C119.203 19.9677 119.347 20.8751 119.636 21.6639C119.931 22.445 120.356 23.0576 120.909 23.5017C121.47 23.9382 122.159 24.1565 122.977 24.1565Z" fill="#0B6D4B" fill-opacity="0.64"/>
<path d="M149.648 15.1509L145.091 15.4266C145.014 15.0437 144.846 14.6991 144.589 14.3928C144.332 14.0788 143.993 13.83 143.573 13.6462C143.16 13.4547 142.665 13.359 142.089 13.359C141.318 13.359 140.667 13.5198 140.138 13.8414C139.608 14.1554 139.343 14.5766 139.343 15.105C139.343 15.5262 139.514 15.8822 139.857 16.1732C140.2 16.4642 140.788 16.6978 141.621 16.8739L144.869 17.5172C146.614 17.8694 147.915 18.4361 148.772 19.2172C149.629 19.9983 150.057 21.0244 150.057 22.2956C150.057 23.452 149.71 24.4666 149.017 25.3396C148.332 26.2126 147.389 26.8941 146.19 27.3842C144.998 27.8667 143.623 28.1079 142.065 28.1079C139.69 28.1079 137.797 27.6216 136.387 26.6491C134.985 25.6689 134.163 24.3364 133.922 22.6517L138.817 22.399C138.965 23.1112 139.324 23.6549 139.892 24.0301C140.461 24.3977 141.189 24.5815 142.077 24.5815C142.949 24.5815 143.65 24.4168 144.18 24.0875C144.718 23.7506 144.99 23.3179 144.998 22.7896C144.99 22.3454 144.799 21.9817 144.425 21.6983C144.052 21.4073 143.475 21.1853 142.696 21.0321L139.588 20.4233C137.836 20.0787 136.531 19.4814 135.674 18.6314C134.825 17.7814 134.401 16.6978 134.401 15.3807C134.401 14.2473 134.712 13.2709 135.336 12.4516C135.967 11.6322 136.851 11.0004 137.988 10.5563C139.133 10.1121 140.473 9.89003 142.007 9.89003C144.274 9.89003 146.057 10.361 147.358 11.3029C148.667 12.2448 149.43 13.5275 149.648 15.1509Z" fill="#0B6D4B" fill-opacity="0.64"/>
<path d="M156.714 22.6862L156.726 16.8165H157.45L163.198 10.1198H168.912L161.189 18.9875H160.009L156.714 22.6862ZM152.204 27.7633V4.23859H157.181V27.7633H152.204ZM163.42 27.7633L158.139 20.0787L161.458 16.6212L169.25 27.7633H163.42Z" fill="#0B6D4B" fill-opacity="0.64"/>
</svg>
