<svg width="24" height="24" viewBox="0 0 24 24" fill="none" xmlns="http://www.w3.org/2000/svg">
<path fill-rule="evenodd" clip-rule="evenodd" d="M22.0731 3.82986C20.3212 1.50389 17.5362 0 14.4 0H9.6C4.29807 0 0 4.29807 0 9.6V14.4C0 19.7019 4.29807 24 9.6 24H14.4C19.7019 24 24 19.7019 24 14.4V9.6C24 8.32553 23.7516 7.10906 23.3007 5.99635L12.2485 17.0485C11.7799 17.5172 11.0201 17.5172 10.5515 17.0485L5.15147 11.6485C4.68284 11.1799 4.68284 10.4201 5.15147 9.95147C5.6201 9.48284 6.3799 9.48284 6.84853 9.95147L11.4 14.5029L22.0731 3.82986Z" fill="#0B6D4B" fill-opacity="0.64"/>
</svg>
